<?xml version="1.0" encoding="UTF-8"?>
<svg version="1.1" xmlns="http://www.w3.org/2000/svg" width="500" height="500">
<path d="M0 0 C165 0 330 0 500 0 C500 165 500 330 500 500 C335 500 170 500 0 500 C0 335 0 170 0 0 Z " fill="#FEFEFE" transform="translate(0,0)"/>
<path d="M0 0 C0.69877258 0.00182281 1.39754517 0.00364563 2.11749268 0.00552368 C12.75337244 0.05211237 22.77806816 0.66685594 33.125 3.3125 C33.81561523 3.47347168 34.50623047 3.63444336 35.21777344 3.80029297 C58.46561037 9.2192357 80.07111368 19.62684067 98.125 35.3125 C98.95386719 36.03179687 99.78273438 36.75109375 100.63671875 37.4921875 C103.16657476 39.73147811 105.65196971 42.01071014 108.125 44.3125 C108.85332031 44.97507813 109.58164062 45.63765625 110.33203125 46.3203125 C130.00350636 64.96390873 141.69631053 89.63664125 149.125 115.3125 C149.49625 116.4675 149.8675 117.6225 150.25 118.8125 C153.00270986 129.82333943 153.49438005 140.77874491 153.4375 152.0625 C153.43476578 153.18918091 153.43476578 153.18918091 153.43197632 154.33862305 C153.38719498 165.29502687 152.89999815 175.66189983 150.125 186.3125 C149.79222595 187.73420134 149.4602277 189.15608444 149.12890625 190.578125 C140.01537892 227.82435991 116.92692968 260.07332288 85.125 281.3125 C83.50658203 282.40498047 83.50658203 282.40498047 81.85546875 283.51953125 C74.25792135 288.41905935 66.3668791 292.13060106 58.02246094 295.53515625 C56.29110382 296.24445129 54.5706593 296.98023586 52.8515625 297.71875 C36.49720784 304.47470507 19.66260422 306.49977582 2.1159668 306.49780273 C-0.04073169 306.49997804 -2.19690787 306.51815938 -4.35351562 306.53710938 C-16.26464067 306.5864744 -27.9324959 305.51567385 -39.4375 302.25 C-40.17798584 302.04012451 -40.91847168 301.83024902 -41.68139648 301.61401367 C-81.12338429 289.86542364 -115.261251 263.14061279 -135.0703125 226.93359375 C-147.21315504 203.14018607 -153.09800731 177.89297403 -153.125 151.25 C-153.12600708 150.55963654 -153.12701416 149.86927307 -153.12805176 149.1579895 C-153.11791982 138.89001361 -152.59020931 129.26826747 -149.875 119.3125 C-149.57335937 118.12398438 -149.27171875 116.93546875 -148.9609375 115.7109375 C-138.27508969 75.83448104 -112.80159957 40.85131197 -76.88061523 20.10498047 C-66.30003889 14.20571021 -55.58715526 9.63728022 -43.953125 6.21875 C-42.07896293 5.66696624 -40.21166509 5.090015 -38.359375 4.46875 C-25.98279971 0.37054626 -12.93082085 -0.07064436 0 0 Z " fill="#19191E" transform="translate(249.875,96.6875)"/>
<path d="M0 0 C1.18078125 -0.01160156 2.3615625 -0.02320313 3.578125 -0.03515625 C13.11942219 -0.00328109 20.58966814 1.16764815 28.01953125 7.38671875 C33.66493642 14.37823027 34.19433378 20.52140315 34.07910156 29.20703125 C34.07968567 30.36887436 34.08026978 31.53071747 34.08087158 32.72776794 C34.07809655 36.54798808 34.0470302 40.36741703 34.015625 44.1875 C34.00816054 46.84408895 34.00227171 49.50063473 33.99847412 52.15722656 C33.98607711 58.42217981 33.95330048 64.68685148 33.91307616 70.95168114 C33.86385324 78.78934782 33.84205679 86.62706091 33.8203125 94.46484375 C33.78143456 108.43511478 33.70129372 122.40477202 33.625 136.375 C12.175 136.375 -9.275 136.375 -31.375 136.375 C-31.57581834 106.70743694 -31.57581834 106.70743694 -31.62626934 92.03635406 C-31.65395941 84.10676578 -31.68909446 76.17744093 -31.75219727 68.24804688 C-31.80214052 61.96925018 -31.8343165 55.6906524 -31.84544247 49.41166258 C-31.85194308 46.08894233 -31.86979557 42.76692148 -31.90365028 39.4443512 C-31.93999976 35.7288351 -31.94494254 32.01449371 -31.94262695 28.29882812 C-31.96060333 27.20550171 -31.97857971 26.11217529 -31.99710083 24.98571777 C-31.9455777 17.33447604 -30.25159489 12.46227268 -24.96754932 6.89105988 C-17.3145926 -0.03709652 -9.85030279 -0.09615263 0 0 Z " fill="#FEFEFE" transform="translate(219.375,148.625)"/>
<path d="M0 0 C0.33 0 0.66 0 1 0 C1 38.61 1 77.22 1 117 C35.10535198 116.8418334 35.10535198 116.8418334 69.21044922 116.63964844 C75.83032227 116.62158203 75.83032227 116.62158203 78.93655396 116.6182251 C81.09031486 116.61211215 83.2440627 116.59810501 85.3977356 116.57769775 C88.67408766 116.54822408 91.94960855 116.54438238 95.22607422 116.54589844 C96.64761968 116.52430979 96.64761968 116.52430979 98.09788322 116.502285 C105.59714479 116.54843236 112.53687753 118.15846362 118.4375 123 C118.953125 123.66 119.46875 124.32 120 125 C120.53625 125.66 121.0725 126.32 121.625 127 C124.72963145 131.51582757 125.32921343 135.09606244 125.37109375 140.546875 C125.38012222 141.27690735 125.3891507 142.0069397 125.39845276 142.75909424 C125.41293408 144.30224525 125.42183674 145.84545736 125.42553711 147.38867188 C125.43739332 149.72894244 125.48655701 152.06653871 125.53710938 154.40625 C125.69663861 168.99175219 125.69663861 168.99175219 120 175 C119.3915625 175.66773438 118.783125 176.33546875 118.15625 177.0234375 C117.6096875 177.46945312 117.063125 177.91546875 116.5 178.375 C115.9534375 178.83648437 115.406875 179.29796875 114.84375 179.7734375 C109.8656987 183.08510722 105.13540918 183.29705149 99.29760742 183.29052734 C98.43190628 183.29724457 97.56620514 183.30396179 96.67427063 183.31088257 C93.81794462 183.32984951 90.96185378 183.33378622 88.10546875 183.3359375 C86.11395675 183.34236673 84.12244569 183.34909518 82.13093567 183.35610962 C77.95730399 183.36807941 73.78375506 183.37179079 69.61010742 183.37060547 C64.27372471 183.37040239 58.93787521 183.39769453 53.60161877 183.43214989 C49.48795659 183.45443737 45.37442231 183.45844243 41.26070595 183.45738602 C39.29400102 183.45973957 37.32729244 183.46854919 35.3606472 183.48405075 C32.60358218 183.50374645 29.84766141 183.49785857 27.09057617 183.48583984 C26.28562714 183.49707886 25.4806781 183.50831787 24.65133667 183.51989746 C17.9990852 183.44656992 12.95907364 181.3986827 7.79296875 177.2109375 C7.26316406 176.60507812 6.73335937 175.99921875 6.1875 175.375 C5.64480469 174.78460938 5.10210937 174.19421875 4.54296875 173.5859375 C-0.72614353 164.75517211 -0.41547725 155.04158291 -0.34057617 145.08544922 C-0.33972853 143.49778764 -0.34020771 141.91012489 -0.34190369 140.32246399 C-0.34275973 136.04003015 -0.32519781 131.75785158 -0.30418181 127.47547674 C-0.28534936 122.98985961 -0.28365942 118.50423577 -0.28010559 114.01858521 C-0.27080434 105.53673801 -0.24621671 97.05500767 -0.21605712 88.57321179 C-0.18245314 78.91175338 -0.16601206 69.2502892 -0.15097082 59.58878684 C-0.11966534 39.72579283 -0.06694241 19.86290379 0 0 Z " fill="#024AAA" transform="translate(187,168)"/>
</svg>
